<?xml version="1.0" standalone="no"?>
<!DOCTYPE svg PUBLIC "-//W3C//DTD SVG 20010904//EN"
 "http://www.w3.org/TR/2001/REC-SVG-20010904/DTD/svg10.dtd">
<svg version="1.0" xmlns="http://www.w3.org/2000/svg"
 width="200.000000pt" height="200.000000pt" viewBox="0 0 200.000000 200.000000"
 preserveAspectRatio="xMidYMid meet">
<metadata>
Created by potrace 1.14, written by Peter Selinger 2001-2017
</metadata>
<g transform="translate(0.000000,200.000000) scale(0.100000,-0.100000)"
fill="#000000" stroke="none">
<path d="M0 1851 c0 -140 1 -149 20 -154 27 -7 29 -59 3 -55 -16 3 -18 -7 -21
-74 -2 -66 0 -77 15 -81 17 -4 17 -5 1 -6 -16 -1 -18 -16 -18 -166 0 -91 3
-165 8 -165 4 0 7 -11 7 -25 0 -14 -3 -25 -7 -25 -5 0 -7 -42 -7 -92 1 -65 4
-84 9 -63 6 23 8 25 9 8 1 -30 21 -40 22 -11 1 17 3 14 10 -12 9 -33 2 -269
-8 -280 -2 -2 -3 55 -1 128 2 94 0 132 -8 132 -7 0 -15 -8 -19 -17 -4 -10 -9
-215 -12 -456 l-6 -437 87 0 c70 0 86 3 86 15 0 8 7 15 15 15 9 0 12 -6 8 -15
-5 -14 39 -16 391 -14 l396 1 0 35 c0 31 2 33 15 19 8 -8 15 -23 14 -33 0 -16
-1 -16 -9 2 -8 19 -9 19 -9 -2 -1 -17 5 -23 20 -23 19 0 20 4 15 43 l-5 42 11
-43 11 -42 74 0 c56 0 75 4 79 15 8 19 34 19 34 0 0 -13 49 -15 385 -15 l385
0 0 490 0 490 -22 -2 c-32 -3 -120 31 -140 54 -18 20 -45 28 -113 33 -22 1
-58 6 -80 10 -36 6 -43 4 -71 -23 -17 -16 -54 -37 -83 -47 -81 -27 -100 -8
-60 60 19 31 20 41 10 79 -17 70 -3 110 42 114 19 1 28 -6 37 -29 l13 -30 20
30 c20 33 22 34 154 35 39 1 69 -3 66 -7 -3 -5 3 -5 13 1 22 11 76 13 69 2 -3
-4 2 -11 11 -14 10 -4 13 -2 8 6 -5 7 -3 8 5 4 7 -5 10 -15 7 -25 -4 -9 2 -5
12 8 15 19 20 21 25 8 3 -8 3 -25 0 -36 -8 -29 5 -26 17 4 5 14 21 30 35 37
23 10 25 16 25 76 l0 65 -28 -35 c-19 -25 -37 -37 -59 -40 -33 -4 -63 11 -63
31 0 7 -5 9 -11 5 -7 -4 -9 -2 -5 7 3 8 9 22 12 32 4 9 9 17 13 17 4 0 5 19 4
43 l-2 42 17 -37 c9 -21 21 -38 26 -38 14 0 -1 126 -20 165 -19 41 -93 91
-109 73 -7 -7 -6 -12 2 -15 17 -6 83 -97 83 -114 0 -10 -3 -10 -12 -1 -7 7
-20 12 -30 12 -16 0 -22 13 -21 47 1 7 -3 11 -7 8 -4 -3 -10 1 -13 9 -3 7 -15
16 -26 19 -16 4 -21 0 -21 -14 0 -21 -42 -44 -49 -27 -2 6 0 13 5 17 5 3 17
22 27 41 18 33 18 35 0 47 -15 12 -16 15 -3 23 8 5 17 5 20 1 7 -10 68 -31 91
-31 11 0 19 5 19 10 0 6 -7 10 -16 10 -13 0 -14 3 -5 13 6 8 8 17 4 20 -3 4
-1 7 6 7 8 0 11 7 7 15 -5 13 -2 14 15 5 11 -6 22 -24 26 -40 3 -16 12 -35 19
-41 8 -6 14 -17 14 -24 0 -27 33 -76 61 -90 l29 -16 0 226 0 225 -1000 0
-1000 0 0 -149z m1804 24 c11 -22 23 -48 28 -58 12 -25 8 -28 -43 -27 -68 1
-78 3 -76 14 1 6 -5 10 -13 8 -8 -1 -4 6 10 17 23 19 23 20 4 15 -26 -7 -42
13 -19 22 13 5 14 9 4 15 -24 15 10 40 50 37 31 -3 39 -9 55 -43z m-1709 -35
c-4 -6 -10 -8 -15 -5 -5 3 -12 -6 -16 -20 -3 -14 -10 -25 -16 -25 -5 0 -7 4
-3 9 3 5 1 13 -5 16 -17 10 5 30 35 33 15 1 24 -2 20 -8z m1443 -6 c17 -3 21
-8 14 -17 -5 -7 -6 -20 -3 -31 7 -18 8 -18 25 -1 9 10 19 15 22 12 3 -3 -4
-15 -15 -26 -12 -12 -18 -21 -15 -21 4 0 2 -6 -3 -12 -6 -7 -13 -23 -16 -36
-5 -20 -3 -22 11 -10 12 9 10 2 -6 -25 -24 -41 -28 -67 -12 -67 6 0 10 7 10
16 0 8 5 12 10 9 6 -4 8 -10 5 -15 -3 -4 -1 -10 4 -12 5 -1 20 -41 35 -88 17
-58 38 -100 65 -134 44 -55 42 -64 -22 -83 -33 -10 -37 -10 -26 3 9 11 8 18
-5 32 -9 10 -16 25 -16 33 0 11 -57 95 -98 144 -14 17 -23 47 -12 40 15 -9 12
13 -5 39 -9 13 -17 37 -18 55 -1 17 -5 31 -8 31 -16 0 -24 63 -14 115 2 11 4
24 4 28 1 5 6 5 11 2 6 -3 13 0 16 8 5 15 26 18 62 11z m122 -53 c0 -5 -9 -7
-20 -4 -11 3 -20 7 -20 9 0 2 9 4 20 4 11 0 20 -4 20 -9z m24 -7 c3 -8 2 -12
-4 -9 -6 3 -10 10 -10 16 0 14 7 11 14 -7z m-1314 -24 c38 -10 -91 -5 -225 10
-52 6 -36 7 60 4 72 -2 146 -9 165 -14z m-193 -45 c28 -8 57 -23 64 -32 13
-15 12 -15 -11 -3 -22 12 -24 12 -12 -2 11 -14 6 -16 -35 -22 -27 -4 -60 -9
-74 -12 -23 -4 -27 -1 -31 25 -4 26 -1 31 16 32 19 2 19 2 -1 6 -13 2 -23 9
-23 14 0 14 50 11 107 -6z m1228 -85 c3 -5 -1 -10 -9 -10 -9 0 -16 -5 -16 -12
0 -6 -3 -9 -6 -5 -9 8 3 37 15 37 5 0 13 -4 16 -10z m25 -71 c0 -24 4 -29 24
-29 18 0 24 -5 24 -25 0 -18 -6 -25 -19 -25 -27 0 -57 53 -51 90 5 37 22 29
22 -11z m-36 15 c3 -8 2 -12 -4 -9 -6 3 -10 10 -10 16 0 14 7 11 14 -7z
m-1321 -89 c-3 -9 -8 -14 -10 -11 -3 3 -2 9 2 15 9 16 15 13 8 -4z m-26 -92
c-4 -38 -7 -88 -7 -113 0 -25 -4 -40 -8 -35 -12 14 -2 215 11 215 6 0 8 -24 4
-67z m1787 58 c3 -5 -2 -15 -12 -22 -15 -13 -16 -12 -4 3 10 13 10 17 0 21 -9
4 -9 6 -1 6 6 1 14 -3 17 -8z m-80 -78 c8 -20 1 -27 -19 -20 -8 4 -15 15 -15
26 0 24 25 19 34 -6z m-1604 -83 c0 -11 -4 -20 -10 -20 -5 0 -10 9 -10 20 0
11 5 20 10 20 6 0 10 -9 10 -20z m-53 -23 c-3 -8 -15 -17 -26 -20 -16 -4 -21
0 -21 15 0 10 4 17 8 14 4 -2 14 -1 22 4 18 11 24 6 17 -13z m83 3 c0 -5 -5
-10 -11 -10 -5 0 -7 5 -4 10 3 6 8 10 11 10 2 0 4 -4 4 -10z m601 -26 c230
-23 276 -32 139 -28 -284 11 -340 16 -340 30 0 18 12 18 201 -2z m-524 -120
c-3 -3 -12 -4 -19 -1 -8 3 -5 6 6 6 11 1 17 -2 13 -5z m50 -10 c-3 -3 -12 -4
-19 -1 -8 3 -5 6 6 6 11 1 17 -2 13 -5z m-275 -54 c-6 -41 -12 -38 -12 6 0 19
4 33 8 30 5 -3 7 -19 4 -36z m945 -342 c-3 -8 -6 -5 -6 6 -1 11 2 17 5 13 3
-3 4 -12 1 -19z m561 -20 c7 -7 12 -18 12 -26 0 -12 -10 -13 -50 -8 l-49 7
-16 -38 c-9 -21 -14 -50 -11 -66 6 -30 -8 -67 -24 -67 -6 0 -10 13 -10 29 0
17 -3 32 -8 35 -4 2 -32 -11 -62 -30 -30 -19 -85 -51 -122 -71 -37 -20 -66
-38 -65 -40 2 -1 37 -7 78 -13 112 -15 132 -21 121 -32 -6 -6 -30 -6 -68 1
-33 6 -129 12 -214 13 -371 3 -461 3 -553 -3 -53 -3 -94 -2 -90 2 13 13 132
28 273 34 124 5 199 17 225 36 9 6 69 4 115 -5 41 -7 70 -19 71 -30 0 -6 4 -1
9 11 5 12 22 26 37 29 15 4 32 11 38 16 5 5 37 24 70 42 48 27 59 38 58 55 -5
41 14 61 58 61 33 0 42 4 46 21 10 37 104 64 131 37z m274 -79 c11 -6 15 -16
11 -26 -4 -9 1 -21 12 -29 40 -30 -8 -84 -75 -84 -23 0 -35 9 -58 43 -16 24
-31 61 -34 83 l-6 40 66 -9 c36 -4 74 -13 84 -18z m-1744 -116 c15 -11 15 -12
-5 -13 -29 0 -30 -26 -3 -35 26 -8 17 -25 -10 -18 -18 5 -20 14 -20 87 0 93
13 126 18 45 2 -35 9 -57 20 -66z m901 40 c1 -32 17 -29 26 4 5 20 2 31 -11
40 -18 13 -7 18 18 8 9 -4 12 -20 10 -54 -3 -44 -6 -48 -28 -45 -13 1 -24 -2
-24 -7 0 -5 -7 -9 -15 -9 -11 0 -15 8 -13 28 2 21 -2 28 -19 30 -33 5 -31 42
1 42 14 0 28 5 32 12 9 14 22 -15 23 -49z m639 45 c18 -18 14 -27 -10 -21 -42
9 -49 13 -43 23 8 14 38 13 53 -2z m-1480 -110 c16 -16 15 -31 0 -21 -7 4 -17
8 -22 8 -5 0 -11 6 -13 13 -6 15 19 16 35 0z m1589 -40 c-3 -8 -6 -5 -6 6 -1
11 2 17 5 13 3 -3 4 -12 1 -19z m-1444 -31 c15 -12 29 -33 31 -47 7 -62 16
-77 54 -84 88 -14 177 -44 180 -60 4 -21 0 -21 -110 9 -51 14 -94 25 -95 25
-1 0 -3 -6 -6 -12 -2 -7 -2 -3 0 10 2 12 -1 22 -7 22 -5 0 -10 -4 -10 -10 0
-5 -6 -10 -14 -10 -9 0 -12 -7 -9 -20 3 -11 0 -20 -6 -20 -6 0 -11 9 -11 20 0
22 -15 27 -24 8 -5 -10 -7 -10 -12 0 -9 19 -38 14 -52 -8 -7 -12 -18 -20 -25
-19 -7 1 -18 1 -24 0 -15 -1 -55 -76 -46 -85 4 -3 -1 -6 -10 -6 -9 0 -19 -4
-22 -10 -4 -6 1 -7 11 -3 12 4 15 3 10 -6 -4 -7 -13 -10 -19 -8 -13 4 -21 57
-8 57 5 0 23 24 40 53 17 28 31 44 31 34 0 -16 3 -15 24 5 18 18 20 25 9 31
-7 4 -18 5 -23 2 -6 -3 -10 0 -10 8 0 8 -8 18 -17 21 -13 5 -14 9 -4 19 8 8
14 9 19 1 8 -13 46 -34 61 -34 6 0 11 10 11 23 0 18 2 19 10 7 5 -8 10 -11 10
-6 0 6 5 5 11 -1 6 -6 17 -9 24 -7 7 3 22 -7 34 -22 l21 -27 0 27 c0 14 -4 26
-9 26 -5 0 -31 20 -57 45 -27 26 -41 43 -32 40 11 -4 18 0 23 14 8 26 13 26
48 -2z m1555 -4 c-2 -13 -15 -19 -43 -21 -39 -3 -39 -3 -21 17 24 26 69 29 64
4z m-1653 -4 c12 -19 -5 -23 -22 -6 -16 16 -16 17 -1 17 9 0 20 -5 23 -11z
m1497 -19 c17 0 29 -3 25 -6 -7 -7 15 -33 25 -28 3 2 11 -10 17 -27 6 -17 22
-40 36 -51 32 -25 32 -36 0 -48 -34 -13 -31 -16 13 -12 20 2 53 -3 72 -11 l34
-15 -39 -11 c-22 -5 -58 -14 -80 -19 -22 -6 -49 -13 -60 -17 -16 -6 -18 -5 -8
5 9 10 7 19 -10 41 -18 25 -47 43 -33 21 6 -9 -47 -7 -63 3 -6 3 -9 10 -7 14
3 4 -3 7 -13 8 -10 1 -17 -6 -18 -19 -3 -32 -10 -32 -37 -2 -19 22 -25 25 -26
12 0 -19 -40 -21 -40 -3 0 6 -7 20 -16 31 -15 18 -15 18 -9 -3 5 -18 3 -22 -9
-17 -9 3 -16 1 -16 -5 0 -6 -5 -10 -12 -8 -7 1 -12 -7 -13 -17 0 -23 -25 -35
-25 -12 0 9 -7 16 -16 16 -12 0 -15 -6 -11 -23 4 -12 2 -29 -4 -37 -8 -12 -9
-11 -5 5 7 27 -8 50 -25 39 -11 -6 -12 -5 -3 7 8 11 6 19 -9 33 -20 19 -20 19
-14 0 7 -18 6 -18 -6 -2 -8 10 -17 15 -20 11 -4 -3 -7 4 -7 16 0 19 5 21 35
19 19 -1 35 -7 35 -14 0 -6 6 -17 14 -24 13 -10 13 -7 3 19 -10 26 -17 31 -45
31 -20 0 -31 4 -27 10 3 6 26 10 50 10 47 0 267 29 274 36 2 2 -7 7 -19 12
-17 6 -20 11 -11 16 21 14 65 24 79 20 8 -2 28 -4 44 -4z m-1644 -126 c4 2 5
-26 3 -62 -4 -64 -5 -65 -12 -27 -4 22 -7 78 -6 125 1 74 1 77 4 22 2 -34 7
-61 11 -58z m319 51 c0 -8 -4 -12 -9 -9 -4 3 -8 9 -8 15 0 5 4 9 8 9 5 0 9 -7
9 -15z m848 -64 c-4 -3 -10 1 -15 9 -7 11 -15 12 -45 3 -27 -9 -35 -9 -32 0 6
20 60 25 80 9 9 -9 15 -18 12 -21z m-1131 14 c-4 -8 -8 -15 -10 -15 -2 0 -4 7
-4 15 0 8 4 15 10 15 5 0 7 -7 4 -15z m1166 -5 c0 -5 -4 -10 -10 -10 -5 0 -10
5 -10 10 0 6 5 10 10 10 6 0 10 -4 10 -10z m-660 -30 c0 -5 -2 -10 -4 -10 -3
0 -8 5 -11 10 -3 6 -1 10 4 10 6 0 11 -4 11 -10z m-400 -30 c0 -5 -2 -10 -4
-10 -3 0 -8 5 -11 10 -3 6 -1 10 4 10 6 0 11 -4 11 -10z m158 -31 c4 -24 3
-24 -12 -4 -13 17 -17 18 -26 5 -8 -12 -10 -9 -10 12 0 24 3 26 23 19 12 -5
23 -18 25 -32z m583 18 c-10 -9 -11 -8 -5 6 3 10 9 15 12 12 3 -3 0 -11 -7
-18z m45 -22 c-9 -23 -26 -9 -26 23 0 24 1 25 16 10 10 -9 14 -24 10 -33z
m-700 -12 c-8 -20 -11 -16 -20 21 -6 26 -6 27 9 12 10 -9 14 -24 11 -33z m424
13 c0 -3 -4 -8 -10 -11 -5 -3 -10 -1 -10 4 0 6 5 11 10 11 6 0 10 -2 10 -4z
m215 -16 c3 -5 1 -10 -4 -10 -6 0 -11 5 -11 10 0 6 2 10 4 10 3 0 8 -4 11 -10z
m92 -37 c-3 -10 -5 -4 -5 12 0 17 2 24 5 18 2 -7 2 -21 0 -30z m633 21 c0 -2
-7 -4 -15 -4 -8 0 -15 4 -15 10 0 5 7 7 15 4 8 -4 15 -8 15 -10z m-670 -11 c0
-10 -4 -14 -8 -8 -4 6 -11 13 -16 18 -5 4 -2 7 7 7 10 0 17 -8 17 -17z m217
-15 c-3 -7 -5 -2 -5 12 0 14 2 19 5 13 2 -7 2 -19 0 -25z m313 2 c0 -5 -4 -10
-10 -10 -5 0 -10 5 -10 10 0 6 5 10 10 10 6 0 10 -4 10 -10z m-583 -22 c-3 -8
-6 -5 -6 6 -1 11 2 17 5 13 3 -3 4 -12 1 -19z m56 -18 c-7 -28 -13 -25 -13 6
0 14 4 23 9 20 5 -3 7 -15 4 -26z m317 0 c0 -5 -4 -10 -10 -10 -5 0 -10 5 -10
10 0 6 5 10 10 10 6 0 10 -4 10 -10z m225 0 c-3 -5 -11 -10 -16 -10 -6 0 -7 5
-4 10 3 6 11 10 16 10 6 0 7 -4 4 -10z m-185 -10 c0 -5 -5 -10 -11 -10 -5 0
-7 5 -4 10 3 6 8 10 11 10 2 0 4 -4 4 -10z m-140 -20 c0 -5 -5 -10 -11 -10 -5
0 -7 5 -4 10 3 6 8 10 11 10 2 0 4 -4 4 -10z"/>
<path d="M1560 1555 c-7 -9 -11 -17 -9 -20 3 -2 10 5 17 15 14 24 10 26 -8 5z"/>
<path d="M1548 1159 c12 -33 63 -45 223 -56 174 -11 229 -7 229 17 0 20 -50
30 -164 30 -65 1 -147 9 -254 26 -41 6 -42 6 -34 -17z"/>
</g>
</svg>
